<svg width="173" height="173" viewBox="0 0 173 173" fill="none" xmlns="http://www.w3.org/2000/svg">
<path id="Exclude" d="M86.5 0C134.273 0 173 38.7274 173 86.5C173 134.273 134.273 173 86.5 173C38.7274 173 0 134.273 0 86.5C0 38.7274 38.7274 0 86.5 0ZM65.7831 62.6428C64.9505 62.6428 64.1523 62.9749 63.5636 63.5636C62.9749 64.1523 62.6428 64.9505 62.6428 65.7831C62.6429 66.6156 62.9749 67.4139 63.5636 68.0026L82.061 86.5L63.5636 104.997C62.9749 105.586 62.6429 106.384 62.6428 107.217C62.6428 108.049 62.9749 108.848 63.5636 109.436C64.1523 110.025 64.9505 110.357 65.7831 110.357C66.6156 110.357 67.4139 110.025 68.0026 109.436L86.5 90.939L104.997 109.436C105.591 110.015 106.388 110.34 107.217 110.34C108.046 110.34 108.842 110.015 109.436 109.436C110.025 108.848 110.357 108.049 110.357 107.217C110.357 106.384 110.025 105.586 109.436 104.997L90.939 86.5L109.436 68.0026C110.025 67.4139 110.357 66.6156 110.357 65.7831C110.357 64.9505 110.025 64.1523 109.436 63.5636C108.842 62.9849 108.046 62.6597 107.217 62.6597C106.388 62.6597 105.591 62.9849 104.997 63.5636L86.5 82.061L68.0026 63.5636C67.4139 62.9749 66.6156 62.6429 65.7831 62.6428Z" fill="#E4E4DA"/>
</svg>
