<svg width="173" height="173" viewBox="0 0 173 173" fill="none" xmlns="http://www.w3.org/2000/svg">
<path id="Union" d="M86.5 0C134.273 2.06165e-06 173 38.7274 173 86.5C173 134.273 134.273 173 86.5 173C38.7274 173 2.0619e-06 134.273 0 86.5C0 38.7274 38.7274 0 86.5 0ZM86.5 4.3252C41.116 4.3252 4.3252 41.116 4.3252 86.5C4.3252 131.884 41.116 168.675 86.5 168.675C131.884 168.675 168.675 131.884 168.675 86.5C168.675 41.116 131.884 4.3252 86.5 4.3252ZM65.8369 62.2461C66.6701 62.2461 67.4694 62.5769 68.0586 63.166L86.5713 81.6787L105.084 63.166C105.678 62.5869 106.476 62.2627 107.306 62.2627C108.136 62.2627 108.933 62.5869 109.527 63.166C110.116 63.7552 110.447 64.5545 110.447 65.3877C110.447 66.2208 110.116 67.0203 109.527 67.6094L91.0146 86.1221L109.527 104.634C110.116 105.223 110.447 106.022 110.447 106.855C110.447 107.689 110.116 108.488 109.527 109.077C108.933 109.656 108.136 109.98 107.306 109.98C106.476 109.98 105.678 109.656 105.084 109.077L86.5713 90.5645L68.0586 109.077C67.4694 109.666 66.6701 109.997 65.8369 109.997C65.0039 109.997 64.2053 109.666 63.6162 109.077C63.027 108.488 62.6953 107.689 62.6953 106.855C62.6954 106.022 63.0271 105.223 63.6162 104.634L82.1289 86.1221L63.6162 67.6094C63.0271 67.0203 62.6954 66.2208 62.6953 65.3877C62.6953 64.5545 63.027 63.7552 63.6162 63.166C64.2053 62.577 65.0039 62.2462 65.8369 62.2461Z" fill="#E4E4DA"/>
</svg>
