<svg width="173" height="173" viewBox="0 0 173 173" fill="none" xmlns="http://www.w3.org/2000/svg">
<path id="Union" d="M86.5 0C86.8733 1.6109e-08 87.246 0.00212126 87.6182 0.00683594C134.875 0.605513 173 39.1006 173 86.5C173 133.899 134.875 172.394 87.6182 172.993C87.246 172.998 86.8733 173 86.5 173C86.1267 173 85.754 172.998 85.3818 172.993C38.1245 172.394 2.04579e-06 133.899 0 86.5C0 39.1006 38.1245 0.605509 85.3818 0.00683594C85.754 0.00212131 86.1267 0 86.5 0ZM85.4375 4.33203C40.5432 4.9009 4.3252 41.4707 4.3252 86.5C4.3252 131.529 40.5432 168.099 85.4375 168.668C85.7911 168.672 86.1453 168.675 86.5 168.675C86.8547 168.675 87.2089 168.672 87.5625 168.668C132.457 168.099 168.675 131.529 168.675 86.5C168.675 41.4707 132.457 4.90091 87.5625 4.33203C87.2089 4.32755 86.8547 4.3252 86.5 4.3252C86.1453 4.3252 85.7911 4.32755 85.4375 4.33203ZM86.6553 54.0664C87.4311 54.1048 88.1678 54.4297 88.7197 54.9814C89.3079 55.5698 89.6373 56.3683 89.6377 57.2002V83.3623H115.8L115.954 83.3682C116.726 83.4161 117.456 83.7436 118.006 84.293C118.592 84.8793 118.927 85.6711 118.938 86.5C118.937 87.3323 118.607 88.1311 118.019 88.7197C117.467 89.2712 116.731 89.5951 115.955 89.6338L115.8 89.6377H89.6377V115.8C89.6373 116.632 89.3079 117.43 88.7197 118.019C88.1678 118.57 87.4311 118.895 86.6553 118.934C86.6037 118.936 86.5519 118.937 86.5 118.938C86.4481 118.937 86.3963 118.935 86.3447 118.932C85.5727 118.884 84.8426 118.555 84.293 118.006C83.7071 117.42 83.3735 116.628 83.3623 115.8V89.6377H57.2002C56.3683 89.6373 55.5698 89.3079 54.9814 88.7197C54.393 88.1311 54.0625 87.3323 54.0625 86.5C54.0625 85.6677 54.393 84.8689 54.9814 84.2803C55.5698 83.6921 56.3683 83.3627 57.2002 83.3623H83.3623V57.2002C83.3627 56.3683 83.6921 55.5698 84.2803 54.9814C84.8322 54.4297 85.5689 54.1048 86.3447 54.0664C86.3963 54.0639 86.4481 54.0625 86.5 54.0625L86.6553 54.0664Z" fill="#0E0E0E"/>
</svg>
