<svg width="174" height="173" viewBox="0 0 174 173" fill="none" xmlns="http://www.w3.org/2000/svg">
<path id="Union" d="M88.124 0.00683594C135.655 0.605194 174 39.1004 174 86.5C174 133.9 135.655 172.395 88.124 172.993C87.7499 172.998 87.3752 173 87 173C86.6248 173 86.2501 172.998 85.876 172.993C38.3452 172.395 2.05762e-06 133.9 0 86.5C0 39.1004 38.3452 0.605192 85.876 0.00683594C86.2501 0.00212635 86.6248 0 87 0C87.3752 8.00388e-09 87.7499 0.00212633 88.124 0.00683594ZM85.9316 4.33203C40.7777 4.90076 4.34961 41.4706 4.34961 86.5C4.34961 131.529 40.7777 168.099 85.9316 168.668C86.2872 168.672 86.6433 168.675 87 168.675C87.3567 168.675 87.7128 168.672 88.0684 168.668C133.222 168.099 169.65 131.529 169.65 86.5C169.65 41.4706 133.222 4.90076 88.0684 4.33203C87.7128 4.32755 87.3567 4.3252 87 4.3252C86.6433 4.3252 86.2872 4.32755 85.9316 4.33203ZM117.71 83C119.527 83.0002 121 84.5671 121 86.5C121 88.4329 119.527 89.9998 117.71 90H56.29C54.473 89.9998 53 88.4329 53 86.5C53 84.5671 54.473 83.0002 56.29 83H117.71Z" fill="#0E0E0E"/>
</svg>
