<svg width="173" height="173" viewBox="0 0 173 173" fill="none" xmlns="http://www.w3.org/2000/svg">
<path id="Exclude" d="M86.5 0C134.273 0 173 38.7274 173 86.5C173 134.273 134.273 173 86.5 173C38.7274 173 0 134.273 0 86.5C0 38.7274 38.7274 0 86.5 0ZM86.5 54.0625C85.6677 54.0625 84.8691 54.3927 84.2805 54.9811C83.692 55.5696 83.3621 56.3685 83.3618 57.2007V83.3618H57.2007C56.3685 83.3621 55.5696 83.692 54.9811 84.2805C54.3927 84.8691 54.0625 85.6677 54.0625 86.5C54.0625 87.3323 54.3927 88.1309 54.9811 88.7195C55.5696 89.308 56.3685 89.6379 57.2007 89.6382H83.3618V115.799C83.3729 116.628 83.707 117.42 84.2931 118.006C84.8795 118.592 85.671 118.927 86.5 118.937C87.3323 118.937 88.1309 118.607 88.7195 118.019C89.308 117.43 89.6379 116.632 89.6382 115.799V89.6382H115.799C116.632 89.6379 117.43 89.308 118.019 88.7195C118.607 88.1309 118.937 87.3323 118.937 86.5C118.927 85.671 118.592 84.8795 118.006 84.2931C117.42 83.707 116.628 83.3729 115.799 83.3618H89.6382V57.2007C89.6379 56.3685 89.308 55.5696 88.7195 54.9811C88.1309 54.3927 87.3323 54.0625 86.5 54.0625Z" fill="#0E0E0E"/>
</svg>
