<svg width="173" height="173" viewBox="0 0 173 173" fill="none" xmlns="http://www.w3.org/2000/svg">
<path id="Exclude" d="M86.5 0C134.273 0 173 38.7274 173 86.5C173 134.273 134.273 173 86.5 173C38.7274 173 0 134.273 0 86.5C0 38.7274 38.7274 0 86.5 0ZM92.4469 54.0625C90.9544 54.0628 89.7439 55.2731 89.7437 56.7656C89.7439 58.2582 90.9544 59.4684 92.4469 59.4687H110.249L56.4763 113.242C55.4207 114.298 55.4207 116.009 56.4763 117.064C57.5319 118.12 59.2431 118.12 60.2987 117.064L114.072 63.2911V81.0937C114.072 82.5863 115.282 83.7967 116.775 83.7969C118.268 83.7967 119.478 82.5863 119.478 81.0937V56.7656C119.478 55.2729 118.268 54.0626 116.775 54.0625H92.4469Z" fill="#0E0E0E"/>
</svg>
