<svg width="173" height="173" viewBox="0 0 173 173" fill="none" xmlns="http://www.w3.org/2000/svg">
<g id="seta para baixo">
<path id="Union" d="M57.7119 119C56.2145 119 55.0001 117.786 55 116.288V91.8812C55.0004 90.384 56.2146 89.1696 57.7119 89.1694C59.2093 89.1695 60.4234 90.3839 60.4237 91.8812V109.741L114.371 55.7942C115.43 54.7352 117.147 54.7353 118.206 55.7942C119.265 56.8533 119.265 58.5699 118.206 59.629L64.2585 113.576H82.1187C83.6161 113.577 84.8305 114.791 84.8306 116.288C84.8305 117.786 83.6161 119 82.1187 119H57.7119Z" fill="#0E0E0E"/>
<path id="Exclude (Stroke)" d="M4.32501 86.5C4.32501 131.884 41.116 168.675 86.5 168.675C131.884 168.675 168.675 131.884 168.675 86.5C168.675 41.116 131.884 4.32501 86.5 4.32501C41.116 4.32501 4.32501 41.116 4.32501 86.5ZM7.62939e-06 86.5C7.62939e-06 38.7274 38.7274 7.62939e-06 86.5 7.62939e-06C134.273 7.62939e-06 173 38.7274 173 86.5C173 134.273 134.273 173 86.5 173C38.7274 173 7.62939e-06 134.273 7.62939e-06 86.5Z" fill="#0E0E0E"/>
</g>
</svg>
